<svg width="24" height="24" viewBox="0 0 24 24" fill="none" xmlns="http://www.w3.org/2000/svg">
<path d="M4.45003 4.66L10 11V21L14 19V11L19.55 4.66C19.6769 4.51562 19.7594 4.33776 19.7878 4.14769C19.8162 3.95762 19.7892 3.7634 19.7101 3.58827C19.6309 3.41313 19.503 3.26451 19.3416 3.16018C19.1802 3.05586 18.9922 3.00024 18.8 3H5.20003C5.00785 3.00024 4.81982 3.05586 4.65842 3.16018C4.49703 3.26451 4.36912 3.41313 4.28999 3.58827C4.21086 3.7634 4.18388 3.95762 4.21226 4.14769C4.24064 4.33776 4.32319 4.51562 4.45003 4.66V4.66Z" stroke="white" stroke-width="1.8" stroke-linecap="round" stroke-linejoin="round"/>
</svg>
